<?xml version="1.0" standalone="no"?>
<!DOCTYPE svg PUBLIC "-//W3C//DTD SVG 20010904//EN"
 "http://www.w3.org/TR/2001/REC-SVG-20010904/DTD/svg10.dtd">
<svg version="1.0" xmlns="http://www.w3.org/2000/svg"
 width="840.000000pt" height="786.000000pt" viewBox="0 0 840.000000 786.000000"
 preserveAspectRatio="xMidYMid meet">
<g transform="translate(0.000000,786.000000) scale(0.100000,-0.100000)"
fill="#ffffff" stroke="none">
<path fill="#ffffff" d="M454 7451 c-93 -23 -178 -94 -226 -189 -22 -44 -23 -58 -23 -242 l0
-195 33 -67 c37 -76 82 -120 162 -157 l55 -26 525 -5 525 -5 132 -645 c73
-355 177 -865 232 -1135 130 -633 320 -1562 476 -2330 69 -335 127 -620 130
-632 4 -16 -3 -26 -30 -43 -61 -38 -133 -103 -185 -169 -177 -222 -219 -523
-109 -788 160 -384 615 -572 1006 -416 223 89 407 302 463 534 27 113 27 268
0 375 -26 102 -86 223 -150 302 l-51 62 1446 0 c1154 0 1445 -3 1439 -12 -5
-7 -27 -37 -51 -66 -169 -208 -210 -519 -102 -779 160 -384 615 -572 1006
-416 162 65 316 205 397 362 161 311 92 706 -162 932 -45 40 -150 113 -174
121 -8 3 2 65 31 197 50 220 51 275 6 366 -33 68 -110 138 -181 164 -55 21
-63 21 -1949 21 l-1895 0 -5 23 c-6 25 -85 419 -85 424 0 1 937 4 2083 5
l2082 3 48 24 c61 30 128 97 155 154 11 24 172 709 357 1523 367 1612 354
1541 307 1646 -28 65 -94 133 -161 165 l-56 28 -2772 3 -2772 2 -10 53 c-98
487 -131 631 -155 671 -31 53 -91 106 -155 138 l-46 23 -780 2 c-429 0 -794
-2 -811 -6z"/>
</g>
</svg>
