<?xml version="1.0" standalone="no"?>
<!DOCTYPE svg PUBLIC "-//W3C//DTD SVG 20010904//EN"
 "http://www.w3.org/TR/2001/REC-SVG-20010904/DTD/svg10.dtd">
<svg version="1.0" xmlns="http://www.w3.org/2000/svg"
 width="300.000000pt" height="353.000000pt" viewBox="0 0 300.000000 353.000000"
 preserveAspectRatio="xMidYMid meet">
<g transform="translate(0.000000,353.000000) scale(0.050000,-0.050000)"
fill="current" stroke="none">
<path d="M2635 7038 c-19 -11 -53 -55 -75 -98 -74 -144 -167 -174 -282 -91
-171 125 -238 112 -287 -57 -50 -173 -150 -214 -314 -130 -139 71 -217 12
-217 -164 0 -141 -67 -185 -257 -168 -194 17 -214 1 -195 -161 21 -180 -73
-287 -224 -257 -139 28 -212 -67 -155 -202 66 -158 10 -260 -159 -292 -158
-29 -199 -112 -115 -231 101 -144 73 -248 -87 -319 -168 -74 -179 -136 -48
-278 107 -116 89 -225 -50 -307 -133 -79 -131 -173 4 -266 143 -98 157 -201
42 -310 -130 -123 -114 -202 55 -277 157 -69 188 -179 88 -306 -44 -56 -52
-169 -14 -200 23 -19 55 -28 189 -55 114 -23 153 -140 95 -279 -58 -139 16
-229 164 -201 110 21 98 -8 -332 -813 -230 -432 -425 -802 -432 -821 -12 -33
17 -35 449 -35 l463 0 231 -350 c128 -192 239 -346 247 -341 8 6 212 334 452
731 461 761 470 773 581 723 28 -13 65 -52 84 -87 96 -180 147 -189 294 -56
155 140 210 136 375 -29 104 -104 169 -83 259 85 19 35 56 74 84 87 111 50
120 39 582 -723 240 -397 443 -726 453 -732 9 -5 120 148 246 341 l229 350
467 6 466 5 -436 816 c-446 837 -457 864 -348 843 148 -28 222 62 164 201 -65
157 -10 260 157 292 156 29 203 127 115 240 -101 129 -69 240 89 310 170 75
179 137 42 283 -113 119 -90 202 95 335 77 55 77 145 0 200 -190 137 -209 215
-86 345 129 136 118 199 -51 273 -158 70 -188 175 -89 315 84 120 42 206 -115
235 -167 32 -222 135 -157 292 57 135 -16 230 -155 202 -151 -30 -241 73 -222
254 17 165 -3 181 -197 164 -190 -17 -257 27 -257 168 0 176 -78 235 -217 164
-164 -84 -262 -43 -312 129 -50 170 -117 183 -289 58 -115 -83 -208 -53 -282
92 -38 74 -91 119 -140 119 -12 0 -67 -43 -123 -95 -84 -78 -114 -94 -177 -94
-63 0 -93 16 -177 94 -105 98 -129 108 -188 73z m575 -599 c1994 -186 2873
-2586 1462 -3990 -1496 -1489 -4023 -444 -4021 1661 2 1287 968 2277 2289
2347 28 2 149 -6 270 -18z"/>
<path d="M2652 6239 c-1527 -239 -2310 -2010 -1464 -3308 1168 -1793 3956
-969 3959 1169 3 1343 -1169 2347 -2495 2139z"/>
</g>
</svg>
